<svg xmlns="http://www.w3.org/2000/svg" width="24" height="24" viewBox="0 0 24 24">
    <path fill="#FF000000" d="M6.5,9.9l1.9,3.7c0.1,0.1,0.2,0.3,0.3,0.4l0.5,0.4l-2.7,3.4c-0.8,1-0.8,2.6,0.2,3.5c1.1,1,2.8,0.9,3.7-0.3l5.1-6.4
				l1.2,1.5c0.1,0.1,0.7,0.8,1.7,0.6l2-0.2l-0.8-7.2c-0.1-0.5-0.3-1-0.7-1.3l-5.1-4.1c-0.8-0.6-1.9-0.6-2.6,0.1L6.9,7.6
				C6.3,8.2,6.1,9.1,6.5,9.9z M8.3,9.1l4.1-3.7l5.1,4.1l0.6,5.3l-2.7-3.3l-6.6,8.3C8.6,19.9,8.3,20,8,19.8c-0.2-0.2-0.3-0.5-0.1-0.7
				l3.8-4.8l-1.4-1.1L8.3,9.1z" />
</svg>
